<?xml version="1.0" encoding="UTF-8" standalone="no"?>
<!-- Generator: Adobe Illustrator 18.1.1, SVG Export Plug-In . SVG Version: 6.00 Build 0)  -->

<svg
   xmlns:dc="http://purl.org/dc/elements/1.1/"
   xmlns:cc="http://creativecommons.org/ns#"
   xmlns:rdf="http://www.w3.org/1999/02/22-rdf-syntax-ns#"
   xmlns:svg="http://www.w3.org/2000/svg"
   xmlns="http://www.w3.org/2000/svg"
   xmlns:sodipodi="http://sodipodi.sourceforge.net/DTD/sodipodi-0.dtd"
   xmlns:inkscape="http://www.inkscape.org/namespaces/inkscape"
   version="1.1"
   id="Layer_1"
   x="0px"
   y="0px"
   viewBox="0 0 136.2 20.100001"
   enable-background="new 0 0 184.2 24.8"
   xml:space="preserve"
   inkscape:version="0.91 r13725"
   sodipodi:docname="heddoko_logo_2.svg"
   width="136.2"
   height="20.1"><metadata
   id="metadata65"><rdf:RDF><cc:Work
       rdf:about=""><dc:format>image/svg+xml</dc:format><dc:type
         rdf:resource="http://purl.org/dc/dcmitype/StillImage" /><dc:title></dc:title></cc:Work></rdf:RDF></metadata><defs
   id="defs63">
	
	
	
	
	
	
	
	
	
	
	
	
	
	
	
	
	
	
	
	
	
	
	
	
	
	
	
	
</defs><sodipodi:namedview
   pagecolor="#ffffff"
   bordercolor="#666666"
   borderopacity="1"
   objecttolerance="10"
   gridtolerance="10"
   guidetolerance="10"
   inkscape:pageopacity="0"
   inkscape:pageshadow="2"
   inkscape:window-width="1920"
   inkscape:window-height="1138"
   id="namedview61"
   showgrid="false"
   fit-margin-top="0"
   fit-margin-left="0"
   fit-margin-right="0"
   fit-margin-bottom="0"
   inkscape:zoom="1.7698154"
   inkscape:cx="43.999998"
   inkscape:cy="11.83497"
   inkscape:window-x="-8"
   inkscape:window-y="-8"
   inkscape:window-maximized="1"
   inkscape:current-layer="Layer_1" />
<rect
   style="fill:none"
   x="-48.099998"
   id="rect43"
   height="24.799999"
   width="184.2"
   y="-4.6999998" /><rect
   style="fill:none"
   x="-48.099998"
   id="rect55"
   height="24.799999"
   width="184.2"
   y="-4.6999998" /><g
   id="g4244"
   transform="translate(-48.1,-4.7)"><polygon
     points="63.5,15.9 61.6,24.4 65,24.4 69.3,5 65.9,5 64.1,12.9 54,12.9 55.8,5 52.4,5 48.1,24.4 51.5,24.4 53.4,15.9 "
     id="polygon45"
     style="fill:#ffffff" /><polygon
     points="74.5,13 75.6,8 85.5,8 86.2,5 72.9,5 68.6,24.4 81.9,24.4 82.5,21.4 72.6,21.4 73.8,16 83.5,16 84.2,13 "
     id="polygon47"
     style="fill:#ffffff" /><path
     d="m 92.6,21.4 c 1.3,0 2.4,-0.2 3.4,-0.6 1,-0.4 1.9,-1 2.6,-1.7 0.7,-0.7 1.3,-1.5 1.6,-2.5 0.4,-0.9 0.6,-2 0.6,-3 0,-0.8 -0.1,-1.5 -0.4,-2.2 C 100.1,10.7 99.8,10.1 99.3,9.6 98.8,9.1 98.3,8.7 97.6,8.4 97,8.1 96.3,8 95.5,8 l -3.7,0 -3,13.4 3.6,0 0.2,0 z m -7.8,3 4.3,-19.4 7.1,0 c 1.1,0 2.1,0.2 3.1,0.6 1,0.4 1.9,1 2.6,1.7 0.8,0.7 1.4,1.6 1.8,2.6 0.5,1 0.7,2.1 0.7,3.4 0,1.3 -0.2,2.6 -0.7,3.9 -0.5,1.3 -1.2,2.5 -2.2,3.6 -1,1.1 -2.3,1.9 -3.9,2.6 -1.6,0.7 -3.4,1 -5.7,1 l -7.1,0 z"
     id="path49"
     inkscape:connector-curvature="0"
     style="fill:#ffffff" /><path
     d="m 112.7,21.4 c 1.3,0 2.4,-0.2 3.4,-0.6 1,-0.4 1.9,-1 2.6,-1.7 0.7,-0.7 1.3,-1.5 1.6,-2.5 0.4,-0.9 0.6,-2 0.6,-3 0,-0.8 -0.1,-1.5 -0.4,-2.2 -0.3,-0.7 -0.6,-1.3 -1.1,-1.8 -0.5,-0.5 -1,-0.9 -1.7,-1.2 C 117,8.1 116.3,8 115.5,8 l -3.7,0 -3,13.4 3.6,0 0.3,0 z m -7.8,3 4.3,-19.4 7.1,0 c 1.1,0 2.1,0.2 3.1,0.6 1,0.4 1.9,1 2.6,1.7 0.8,0.7 1.4,1.6 1.8,2.6 0.5,1 0.7,2.1 0.7,3.4 0,1.3 -0.2,2.6 -0.7,3.9 -0.5,1.3 -1.2,2.5 -2.2,3.6 -1,1.1 -2.3,1.9 -3.9,2.6 -1.6,0.7 -3.4,1 -5.7,1 l -7.1,0 z"
     id="path51"
     inkscape:connector-curvature="0"
     style="fill:#ffffff" /><path
     d="m 135.5,21.7 c 1,0 2,-0.2 2.9,-0.6 0.9,-0.4 1.7,-1 2.3,-1.7 0.7,-0.7 1.2,-1.6 1.6,-2.6 0.4,-1 0.6,-2.1 0.6,-3.3 0,-0.9 -0.2,-1.7 -0.5,-2.4 -0.3,-0.7 -0.7,-1.3 -1.3,-1.8 -0.5,-0.5 -1.2,-0.9 -1.9,-1.1 -0.7,-0.3 -1.5,-0.4 -2.3,-0.4 -1,0 -2,0.2 -2.9,0.6 -0.9,0.4 -1.7,1 -2.3,1.7 -0.7,0.7 -1.2,1.6 -1.6,2.6 -0.4,1 -0.6,2.1 -0.6,3.3 0,0.9 0.1,1.7 0.4,2.4 0.3,0.7 0.7,1.3 1.3,1.8 0.5,0.5 1.2,0.9 1.9,1.1 0.8,0.3 1.6,0.4 2.4,0.4 m -0.2,3.1 c -1.3,0 -2.5,-0.2 -3.7,-0.6 -1.1,-0.4 -2.1,-1 -3,-1.7 -0.8,-0.7 -1.5,-1.6 -2,-2.7 -0.5,-1.1 -0.7,-2.3 -0.7,-3.6 0,-1.6 0.3,-3.1 0.9,-4.5 0.6,-1.4 1.4,-2.6 2.4,-3.7 1,-1 2.2,-1.9 3.5,-2.4 1.3,-0.6 2.8,-0.9 4.4,-0.9 1.3,0 2.5,0.2 3.7,0.6 1.1,0.4 2.1,1 3,1.7 0.8,0.7 1.5,1.6 2,2.7 0.5,1.1 0.7,2.3 0.7,3.6 0,1.6 -0.3,3.1 -0.9,4.5 -0.6,1.4 -1.4,2.6 -2.4,3.7 -1,1 -2.2,1.9 -3.5,2.4 -1.4,0.6 -2.8,0.9 -4.4,0.9"
     id="path53"
     inkscape:connector-curvature="0"
     style="fill:#ffffff" /><polygon
     points="158.5,24.4 162.5,24.4 156.3,14.2 166.2,5 161.8,5 152.4,14 154.4,5 151,5 146.7,24.4 150.1,24.4 151.5,18.2 153.7,16.1 "
     id="polygon57"
     style="fill:#ffffff" /><path
     d="m 173.3,21.7 c 1,0 2,-0.2 2.9,-0.6 0.9,-0.4 1.7,-1 2.3,-1.7 0.7,-0.7 1.2,-1.6 1.6,-2.6 0.4,-1 0.6,-2.1 0.6,-3.3 0,-0.9 -0.2,-1.7 -0.5,-2.4 -0.3,-0.7 -0.7,-1.3 -1.3,-1.8 -0.5,-0.5 -1.2,-0.9 -1.9,-1.1 -0.7,-0.3 -1.5,-0.4 -2.3,-0.4 -1,0 -2,0.2 -2.9,0.6 -0.9,0.4 -1.7,1 -2.3,1.7 -0.7,0.7 -1.2,1.6 -1.6,2.6 -0.4,1 -0.6,2.1 -0.6,3.3 0,0.9 0.1,1.7 0.5,2.4 0.3,0.7 0.7,1.3 1.3,1.8 0.5,0.5 1.2,0.9 1.9,1.1 0.6,0.3 1.4,0.4 2.3,0.4 m -0.3,3.1 c -1.3,0 -2.5,-0.2 -3.7,-0.6 -1.1,-0.4 -2.1,-1 -3,-1.7 -0.8,-0.7 -1.5,-1.6 -2,-2.7 -0.5,-1.1 -0.7,-2.3 -0.7,-3.6 0,-1.6 0.3,-3.1 0.9,-4.5 0.7,-1.4 1.5,-2.7 2.5,-3.7 1,-1 2.2,-1.9 3.5,-2.4 1.3,-0.6 2.8,-0.9 4.4,-0.9 1.3,0 2.5,0.2 3.7,0.6 1.1,0.4 2.1,1 3,1.7 0.8,0.7 1.5,1.6 2,2.7 0.5,1.1 0.7,2.3 0.7,3.6 0,1.6 -0.3,3.1 -0.9,4.5 -0.6,1.4 -1.4,2.6 -2.4,3.7 -1,1 -2.2,1.9 -3.5,2.4 -1.4,0.6 -2.9,0.9 -4.5,0.9"
     id="path59"
     inkscape:connector-curvature="0"
     style="fill:#ffffff" /></g>
</svg>