<?xml version="1.0" encoding="UTF-8" standalone="no"?>
<!-- Generator: Adobe Illustrator 18.1.1, SVG Export Plug-In . SVG Version: 6.00 Build 0)  -->

<svg
   xmlns:dc="http://purl.org/dc/elements/1.1/"
   xmlns:cc="http://creativecommons.org/ns#"
   xmlns:rdf="http://www.w3.org/1999/02/22-rdf-syntax-ns#"
   xmlns:svg="http://www.w3.org/2000/svg"
   xmlns="http://www.w3.org/2000/svg"
   xmlns:sodipodi="http://sodipodi.sourceforge.net/DTD/sodipodi-0.dtd"
   xmlns:inkscape="http://www.inkscape.org/namespaces/inkscape"
   version="1.1"
   id="Layer_1"
   x="0px"
   y="0px"
   viewBox="0 0 39.857403 24.719893"
   enable-background="new 0 0 184.2 24.8"
   xml:space="preserve"
   inkscape:version="0.91 r13725"
   sodipodi:docname="heddoko_logo_1.svg"
   width="39.857403"
   height="24.719893"><metadata
   id="metadata65"><rdf:RDF><cc:Work
       rdf:about=""><dc:format>image/svg+xml</dc:format><dc:type
         rdf:resource="http://purl.org/dc/dcmitype/StillImage" /><dc:title></dc:title></cc:Work></rdf:RDF></metadata><defs
   id="defs63">
	
	
	
	
	
	
	
	
	
	
	
	
	
	
	
	
	
	
	
	
	
	
	
	
	
	
	
	
</defs><sodipodi:namedview
   pagecolor="#ffffff"
   bordercolor="#666666"
   borderopacity="1"
   objecttolerance="10"
   gridtolerance="10"
   guidetolerance="10"
   inkscape:pageopacity="0"
   inkscape:pageshadow="2"
   inkscape:window-width="1920"
   inkscape:window-height="1138"
   id="namedview61"
   showgrid="false"
   fit-margin-top="0"
   fit-margin-left="0"
   fit-margin-right="0"
   fit-margin-bottom="0"
   inkscape:zoom="1.7698154"
   inkscape:cx="92.0787"
   inkscape:cy="11.776391"
   inkscape:window-x="-8"
   inkscape:window-y="-8"
   inkscape:window-maximized="1"
   inkscape:current-layer="Layer_1" />
<g
   id="g4223"
   transform="translate(-0.02129819,-0.02152858)"><path
     d="m 25.6,1.6 c -0.8,-1.5 -2.7,-2 -4.2,-1.2 -1.5,0.8 -2,2.7 -1.2,4.2 0.8,1.5 2.7,2 4.2,1.2 C 25.9,5 26.5,3 25.6,1.6"
     id="path5"
     inkscape:connector-curvature="0"
     style="fill:#ffffff" /><path
     d="M 7.8,4.1 C 8,4.2 8.3,4.1 8.5,4 8.8,3.9 8.9,3.7 9,3.5 9,3.2 9,3 8.9,2.7 8.8,2.5 8.6,2.4 8.3,2.3 8.1,2.2 7.8,2.3 7.6,2.4 7.4,2.5 7.2,2.7 7.2,2.9 7.1,3.1 7.2,3.4 7.3,3.6 7.4,3.9 7.6,4 7.8,4.1"
     id="path7"
     inkscape:connector-curvature="0"
     style="fill:#ffffff" /><path
     d="M 7.9,7.8 C 8.2,7.9 8.5,7.8 8.7,7.7 9.1,7.6 9.2,7.3 9.3,7 9.4,6.7 9.3,6.4 9.2,6.2 9.1,5.9 8.8,5.7 8.5,5.7 8.3,5.6 8,5.6 7.7,5.8 7.4,5.9 7.2,6.2 7.2,6.4 7.1,6.7 7.1,7 7.3,7.3 7.4,7.6 7.7,7.7 7.9,7.8"
     id="path9"
     inkscape:connector-curvature="0"
     style="fill:#ffffff" /><path
     d="m 9.7,11.2 c 0.3,0.1 0.7,0.1 1,-0.1 0.3,-0.2 0.5,-0.5 0.6,-0.8 C 11.4,10 11.4,9.6 11.2,9.3 11,9 10.7,8.8 10.4,8.7 10.1,8.6 9.7,8.6 9.4,8.8 9.1,9.1 8.9,9.3 8.8,9.7 c -0.1,0.3 -0.1,0.7 0.1,1 0.2,0.2 0.5,0.5 0.8,0.5"
     id="path11"
     inkscape:connector-curvature="0"
     style="fill:#ffffff" /><path
     d="m 13.5,13.1 c 0.4,0.1 0.8,0.1 1.1,-0.1 0.4,-0.2 0.6,-0.5 0.7,-0.9 0.1,-0.4 0.1,-0.8 -0.1,-1.1 -0.2,-0.4 -0.5,-0.6 -0.9,-0.7 -0.4,-0.1 -0.8,-0.1 -1.1,0.1 -0.4,0.2 -0.6,0.5 -0.7,0.9 -0.1,0.4 -0.1,0.8 0.1,1.1 0.2,0.3 0.5,0.6 0.9,0.7"
     id="path13"
     inkscape:connector-curvature="0"
     style="fill:#ffffff" /><path
     d="m 18,13 c 0.4,0.1 0.9,0.1 1.2,-0.1 0.4,-0.2 0.7,-0.6 0.8,-1 C 20.1,11.5 20.1,11 19.9,10.7 19.7,10.3 19.3,10 18.9,9.9 18.5,9.7 18,9.8 17.6,10 c -0.4,0.2 -0.7,0.6 -0.8,1 -0.1,0.4 -0.1,0.9 0.1,1.2 0.3,0.4 0.7,0.7 1.1,0.8"
     id="path15"
     inkscape:connector-curvature="0"
     style="fill:#ffffff" /><path
     d="m 22.7,12.3 c 0.4,0.1 0.9,0.1 1.4,-0.2 C 24.5,11.9 24.8,11.5 25,11 25.1,10.6 25.1,10.1 24.8,9.6 24.6,9.2 24.2,8.9 23.7,8.7 23.3,8.6 22.8,8.6 22.3,8.9 21.9,9.1 21.6,9.5 21.4,10 c -0.1,0.4 -0.1,0.9 0.2,1.4 0.3,0.5 0.7,0.8 1.1,0.9"
     id="path17"
     inkscape:connector-curvature="0"
     style="fill:#ffffff" /><path
     d="m 27.6,11.1 c 0.5,0.1 1,0.1 1.5,-0.2 0.5,-0.3 0.8,-0.7 0.9,-1.2 0.1,-0.5 0.1,-1 -0.2,-1.5 -0.3,-0.5 -0.7,-0.8 -1.2,-0.9 -0.5,-0.1 -1,-0.1 -1.5,0.2 -0.5,0.3 -0.8,0.7 -0.9,1.2 -0.1,0.5 -0.1,1 0.2,1.5 0.2,0.4 0.7,0.8 1.2,0.9"
     id="path19"
     inkscape:connector-curvature="0"
     style="fill:#ffffff" /><path
     d="m 32.2,9.4 c 0.5,0.1 1.1,0.1 1.6,-0.2 0.5,-0.3 0.9,-0.8 1,-1.3 C 35,7.4 34.9,6.8 34.6,6.3 34.3,5.8 33.8,5.4 33.3,5.3 32.8,5.2 32.2,5.2 31.7,5.5 c -0.5,0.3 -0.9,0.8 -1,1.3 -0.2,0.5 -0.1,1.1 0.2,1.6 0.3,0.5 0.8,0.9 1.3,1"
     id="path21"
     inkscape:connector-curvature="0"
     style="fill:#ffffff" /><path
     d="M 39.6,4.2 C 39,3.1 37.5,2.7 36.4,3.3 35.3,3.9 34.9,5.4 35.5,6.5 36.1,7.6 37.6,8 38.7,7.4 39.8,6.7 40.2,5.3 39.6,4.2"
     id="path23"
     inkscape:connector-curvature="0"
     style="fill:#ffffff" /><path
     d="m 32.1,22.9 c -0.2,-0.1 -0.5,0 -0.7,0.1 -0.2,0.1 -0.4,0.3 -0.4,0.6 -0.1,0.2 0,0.5 0.1,0.7 0.1,0.2 0.3,0.4 0.6,0.4 0.2,0.1 0.5,0 0.7,-0.1 0.2,-0.1 0.4,-0.3 0.4,-0.6 0.1,-0.2 0,-0.5 -0.1,-0.7 -0.2,-0.2 -0.4,-0.3 -0.6,-0.4"
     id="path25"
     inkscape:connector-curvature="0"
     style="fill:#ffffff" /><path
     d="m 32,19.2 c -0.3,-0.1 -0.6,0 -0.8,0.1 -0.3,0.2 -0.4,0.4 -0.5,0.7 -0.1,0.3 0,0.6 0.1,0.8 0.1,0.3 0.4,0.4 0.7,0.5 0.3,0.1 0.6,0.1 0.8,-0.1 0.3,-0.2 0.4,-0.4 0.5,-0.7 0.1,-0.3 0.1,-0.6 -0.1,-0.8 -0.2,-0.2 -0.4,-0.4 -0.7,-0.5"
     id="path27"
     inkscape:connector-curvature="0"
     style="fill:#ffffff" /><path
     d="m 30.2,15.8 c -0.3,-0.1 -0.7,-0.1 -1,0.1 -0.3,0.2 -0.5,0.5 -0.6,0.8 -0.1,0.3 -0.1,0.7 0.1,1 0.2,0.3 0.5,0.5 0.8,0.6 0.3,0.1 0.7,0.1 1,-0.1 0.3,-0.2 0.5,-0.5 0.6,-0.8 0.1,-0.3 0.1,-0.7 -0.1,-1 -0.1,-0.3 -0.4,-0.5 -0.8,-0.6"
     id="path29"
     inkscape:connector-curvature="0"
     style="fill:#ffffff" /><path
     d="M 26.4,13.9 C 26,13.8 25.6,13.8 25.3,14 c -0.4,0.2 -0.6,0.5 -0.7,0.9 -0.1,0.4 -0.1,0.8 0.1,1.1 0.2,0.3 0.5,0.6 0.9,0.7 0.4,0.1 0.8,0.1 1.1,-0.1 0.4,-0.2 0.6,-0.5 0.7,-0.9 0.1,-0.4 0.1,-0.8 -0.1,-1.1 -0.2,-0.3 -0.5,-0.6 -0.9,-0.7"
     id="path31"
     inkscape:connector-curvature="0"
     style="fill:#ffffff" /><path
     d="m 21.9,14 c -0.4,-0.1 -0.9,-0.1 -1.2,0.1 -0.4,0.2 -0.7,0.6 -0.8,1 -0.1,0.4 -0.1,0.9 0.1,1.2 0.2,0.4 0.6,0.7 1,0.8 0.4,0.1 0.9,0.1 1.2,-0.1 0.4,-0.2 0.7,-0.6 0.8,-1 0.1,-0.4 0.1,-0.9 -0.1,-1.2 -0.2,-0.4 -0.6,-0.7 -1,-0.8"
     id="path33"
     inkscape:connector-curvature="0"
     style="fill:#ffffff" /><path
     d="m 17.2,14.7 c -0.4,-0.1 -0.9,-0.1 -1.4,0.2 -0.4,0.2 -0.7,0.6 -0.9,1.1 -0.1,0.4 -0.1,0.9 0.2,1.4 0.2,0.4 0.6,0.7 1.1,0.9 0.4,0.1 0.9,0.1 1.4,-0.2 0.4,-0.2 0.7,-0.6 0.9,-1.1 0.1,-0.4 0.1,-0.9 -0.2,-1.4 -0.2,-0.5 -0.6,-0.8 -1.1,-0.9"
     id="path35"
     inkscape:connector-curvature="0"
     style="fill:#ffffff" /><path
     d="m 12.4,15.9 c -0.5,-0.1 -1,-0.1 -1.5,0.2 -0.5,0.3 -0.8,0.7 -0.9,1.2 -0.1,0.5 -0.1,1 0.2,1.5 0.3,0.5 0.7,0.8 1.2,0.9 0.5,0.1 1,0.1 1.5,-0.2 0.5,-0.3 0.8,-0.7 0.9,-1.2 0.1,-0.5 0.1,-1 -0.2,-1.5 -0.3,-0.4 -0.8,-0.7 -1.2,-0.9"
     id="path37"
     inkscape:connector-curvature="0"
     style="fill:#ffffff" /><path
     d="M 7.7,17.6 C 7.2,17.5 6.6,17.5 6.1,17.8 5.6,18.1 5.2,18.6 5.1,19.1 5,19.6 5,20.2 5.3,20.7 c 0.3,0.5 0.8,0.9 1.3,1 0.5,0.1 1.1,0.1 1.6,-0.2 0.5,-0.3 0.9,-0.8 1,-1.3 C 9.3,19.7 9.3,19.1 9,18.6 8.7,18.1 8.2,17.7 7.7,17.6"
     id="path39"
     inkscape:connector-curvature="0"
     style="fill:#ffffff" /><path
     d="m 0.3,22.8 c 0.6,1.1 2.1,1.5 3.2,0.9 C 4.6,23.1 5,21.6 4.4,20.5 3.8,19.4 2.3,19 1.2,19.6 0.1,20.3 -0.3,21.7 0.3,22.8"
     id="path41"
     inkscape:connector-curvature="0"
     style="fill:#ffffff" /></g><rect
   style="fill:none"
   x="-0.021298192"
   id="rect43"
   height="24.799999"
   width="184.2"
   y="-0.021528579" /><rect
   style="fill:none"
   x="-0.021298192"
   id="rect55"
   height="24.799999"
   width="184.2"
   y="-0.021528579" /><g
   id="g4244"
   transform="translate(-0.02129819,-0.02152858)"><polygon
     points="48.1,24.4 51.5,24.4 53.4,15.9 63.5,15.9 61.6,24.4 65,24.4 69.3,5 65.9,5 64.1,12.9 54,12.9 55.8,5 52.4,5 "
     id="polygon45"
     style="fill:#ffffff" /><polygon
     points="73.8,16 83.5,16 84.2,13 74.5,13 75.6,8 85.5,8 86.2,5 72.9,5 68.6,24.4 81.9,24.4 82.5,21.4 72.6,21.4 "
     id="polygon47"
     style="fill:#ffffff" /><path
     d="m 92.6,21.4 c 1.3,0 2.4,-0.2 3.4,-0.6 1,-0.4 1.9,-1 2.6,-1.7 0.7,-0.7 1.3,-1.5 1.6,-2.5 0.4,-0.9 0.6,-2 0.6,-3 0,-0.8 -0.1,-1.5 -0.4,-2.2 C 100.1,10.7 99.8,10.1 99.3,9.6 98.8,9.1 98.3,8.7 97.6,8.4 97,8.1 96.3,8 95.5,8 l -3.7,0 -3,13.4 3.6,0 0.2,0 z m -7.8,3 4.3,-19.4 7.1,0 c 1.1,0 2.1,0.2 3.1,0.6 1,0.4 1.9,1 2.6,1.7 0.8,0.7 1.4,1.6 1.8,2.6 0.5,1 0.7,2.1 0.7,3.4 0,1.3 -0.2,2.6 -0.7,3.9 -0.5,1.3 -1.2,2.5 -2.2,3.6 -1,1.1 -2.3,1.9 -3.9,2.6 -1.6,0.7 -3.4,1 -5.7,1 l -7.1,0 z"
     id="path49"
     inkscape:connector-curvature="0"
     style="fill:#ffffff" /><path
     d="m 112.7,21.4 c 1.3,0 2.4,-0.2 3.4,-0.6 1,-0.4 1.9,-1 2.6,-1.7 0.7,-0.7 1.3,-1.5 1.6,-2.5 0.4,-0.9 0.6,-2 0.6,-3 0,-0.8 -0.1,-1.5 -0.4,-2.2 -0.3,-0.7 -0.6,-1.3 -1.1,-1.8 -0.5,-0.5 -1,-0.9 -1.7,-1.2 C 117,8.1 116.3,8 115.5,8 l -3.7,0 -3,13.4 3.6,0 0.3,0 z m -7.8,3 4.3,-19.4 7.1,0 c 1.1,0 2.1,0.2 3.1,0.6 1,0.4 1.9,1 2.6,1.7 0.8,0.7 1.4,1.6 1.8,2.6 0.5,1 0.7,2.1 0.7,3.4 0,1.3 -0.2,2.6 -0.7,3.9 -0.5,1.3 -1.2,2.5 -2.2,3.6 -1,1.1 -2.3,1.9 -3.9,2.6 -1.6,0.7 -3.4,1 -5.7,1 l -7.1,0 z"
     id="path51"
     inkscape:connector-curvature="0"
     style="fill:#ffffff" /><path
     d="m 135.5,21.7 c 1,0 2,-0.2 2.9,-0.6 0.9,-0.4 1.7,-1 2.3,-1.7 0.7,-0.7 1.2,-1.6 1.6,-2.6 0.4,-1 0.6,-2.1 0.6,-3.3 0,-0.9 -0.2,-1.7 -0.5,-2.4 -0.3,-0.7 -0.7,-1.3 -1.3,-1.8 -0.5,-0.5 -1.2,-0.9 -1.9,-1.1 -0.7,-0.3 -1.5,-0.4 -2.3,-0.4 -1,0 -2,0.2 -2.9,0.6 -0.9,0.4 -1.7,1 -2.3,1.7 -0.7,0.7 -1.2,1.6 -1.6,2.6 -0.4,1 -0.6,2.1 -0.6,3.3 0,0.9 0.1,1.7 0.4,2.4 0.3,0.7 0.7,1.3 1.3,1.8 0.5,0.5 1.2,0.9 1.9,1.1 0.8,0.3 1.6,0.4 2.4,0.4 m -0.2,3.1 c -1.3,0 -2.5,-0.2 -3.7,-0.6 -1.1,-0.4 -2.1,-1 -3,-1.7 -0.8,-0.7 -1.5,-1.6 -2,-2.7 -0.5,-1.1 -0.7,-2.3 -0.7,-3.6 0,-1.6 0.3,-3.1 0.9,-4.5 0.6,-1.4 1.4,-2.6 2.4,-3.7 1,-1 2.2,-1.9 3.5,-2.4 1.3,-0.6 2.8,-0.9 4.4,-0.9 1.3,0 2.5,0.2 3.7,0.6 1.1,0.4 2.1,1 3,1.7 0.8,0.7 1.5,1.6 2,2.7 0.5,1.1 0.7,2.3 0.7,3.6 0,1.6 -0.3,3.1 -0.9,4.5 -0.6,1.4 -1.4,2.6 -2.4,3.7 -1,1 -2.2,1.9 -3.5,2.4 -1.4,0.6 -2.8,0.9 -4.4,0.9"
     id="path53"
     inkscape:connector-curvature="0"
     style="fill:#ffffff" /><polygon
     points="150.1,24.4 151.5,18.2 153.7,16.1 158.5,24.4 162.5,24.4 156.3,14.2 166.2,5 161.8,5 152.4,14 154.4,5 151,5 146.7,24.4 "
     id="polygon57"
     style="fill:#ffffff" /><path
     d="m 173.3,21.7 c 1,0 2,-0.2 2.9,-0.6 0.9,-0.4 1.7,-1 2.3,-1.7 0.7,-0.7 1.2,-1.6 1.6,-2.6 0.4,-1 0.6,-2.1 0.6,-3.3 0,-0.9 -0.2,-1.7 -0.5,-2.4 -0.3,-0.7 -0.7,-1.3 -1.3,-1.8 -0.5,-0.5 -1.2,-0.9 -1.9,-1.1 -0.7,-0.3 -1.5,-0.4 -2.3,-0.4 -1,0 -2,0.2 -2.9,0.6 -0.9,0.4 -1.7,1 -2.3,1.7 -0.7,0.7 -1.2,1.6 -1.6,2.6 -0.4,1 -0.6,2.1 -0.6,3.3 0,0.9 0.1,1.7 0.5,2.4 0.3,0.7 0.7,1.3 1.3,1.8 0.5,0.5 1.2,0.9 1.9,1.1 0.6,0.3 1.4,0.4 2.3,0.4 m -0.3,3.1 c -1.3,0 -2.5,-0.2 -3.7,-0.6 -1.1,-0.4 -2.1,-1 -3,-1.7 -0.8,-0.7 -1.5,-1.6 -2,-2.7 -0.5,-1.1 -0.7,-2.3 -0.7,-3.6 0,-1.6 0.3,-3.1 0.9,-4.5 0.7,-1.4 1.5,-2.7 2.5,-3.7 1,-1 2.2,-1.9 3.5,-2.4 1.3,-0.6 2.8,-0.9 4.4,-0.9 1.3,0 2.5,0.2 3.7,0.6 1.1,0.4 2.1,1 3,1.7 0.8,0.7 1.5,1.6 2,2.7 0.5,1.1 0.7,2.3 0.7,3.6 0,1.6 -0.3,3.1 -0.9,4.5 -0.6,1.4 -1.4,2.6 -2.4,3.7 -1,1 -2.2,1.9 -3.5,2.4 -1.4,0.6 -2.9,0.9 -4.5,0.9"
     id="path59"
     inkscape:connector-curvature="0"
     style="fill:#ffffff" /></g>
</svg>